<svg width="20" height="20" viewBox="0 0 20 20" fill="none" xmlns="http://www.w3.org/2000/svg">
<path d="M19.8055 8.0415H19V8H10V12H15.6515C14.827 14.3285 12.6115 16 10 16C6.6865 16 4 13.3135 4 10C4 6.6865 6.6865 4 10 4C11.5295 4 12.921 4.577 13.9805 5.5195L16.809 2.691C15.023 1.0265 12.634 0 10 0C4.4775 0 0 4.4775 0 10C0 15.5225 4.4775 20 10 20C15.5225 20 20 15.5225 20 10C20 9.3295 19.931 8.675 19.8055 8.0415Z" fill="#FFC107"/>
<path d="M1.15305 5.3455L4.43855 7.755C5.32755 5.554 7.48055 4 10 4C11.5295 4 12.921 4.577 13.9805 5.5195L16.809 2.691C15.023 1.0265 12.634 0 10 0C6.15905 0 2.82805 2.1685 1.15305 5.3455Z" fill="#FF3D00"/>
<path d="M10.0001 20C12.5831 20 14.9301 19.0115 16.7046 17.404L13.6096 14.785C12.5719 15.5742 11.3038 16.001 10.0001 16C7.3991 16 5.1906 14.3415 4.3586 12.027L1.0976 14.5395C2.7526 17.778 6.1136 20 10.0001 20Z" fill="#4CAF50"/>
<path d="M19.8056 8.04162H19.0001V8.00012H10.0001V12.0001H15.6516C15.2572 13.1083 14.5467 14.0767 13.6081 14.7856L13.6096 14.7846L16.7046 17.4036C16.4856 17.6026 20.0001 15.0001 20.0001 10.0001C20.0001 9.32962 19.9311 8.67512 19.8056 8.04162Z" fill="#1976D2"/>
</svg>
